<svg id="Layer_1" data-name="Layer 1" xmlns="http://www.w3.org/2000/svg" viewBox="0 0 315.14 119.14"><defs><style>.cls-1,.cls-4,.cls-7{fill:#fff;}.cls-1{stroke:#866bac;}.cls-1,.cls-5,.cls-7,.cls-8{stroke-miterlimit:10;}.cls-2{fill:lime;}.cls-3,.cls-8{fill:#aa6cfb;}.cls-5{fill:none;stroke:#000;}.cls-6{fill:#aa6cfa;}.cls-7,.cls-8{font-size:35.92px;font-family:Coolvetica-Regular, Coolvetica;}.cls-7{stroke:#fff;stroke-width:0.5px;letter-spacing:0.02em;}.cls-8{stroke:#9a74b1;letter-spacing:0.03em;}</style></defs><path class="cls-1" d="M28.25,65.91c15.93-7.68,25.21-7,25.21-7,19.11-1.42,26.41,7.4,26.41,7.4l1.57-1.14c9.67.29,13.37-4.83,13.37-4.83,2.13-2.42,1.85-7.26,1.85-7.26C104.77,44.3,99.8,33.2,99.8,33.2,93.13,17.84,75.18,20.12,75.18,20.12c-6.83-4.55-21.05-6.83-21.05-6.83C33.08,14.43,29.38,26.66,29.38,26.66c-21,1.42-23.6,18.77-23.6,18.77-2,19.63,15.64,23,15.64,23l1.78,1.28Z"/><path class="cls-2" d="M23.2,30.07s-3.34,4.27-2.35,7c0,0,2.56,1.85,4.55,0a7,7,0,0,1-3.13,8.25s2.85,1.14,5.41-2c0,0-.29,7.54-11.52,7.4A13.4,13.4,0,0,0,25,63.18l.85,3.44-1.28,1a26,26,0,0,1-12.23-7.25s5.54,3.13,8.82,3.41c0,0-13.09-6.54-12-15.5C8.57,39.43,14.19,33.87,23.2,30.07Z"/><path class="cls-2" d="M52.42,40.17c-7,8.82-18.48,5.41-18.48,5.41,1-1,1-4.06,1-4.06C28.82,52.4,18.4,52,18.4,52s4.16,1.13,4.8.57l3.48,13.22,1.71-1-3.7-13s4.41.29,8-4.55l.85-.57A20.21,20.21,0,0,0,42.33,48C48.2,47.09,50.1,43.49,52.42,40.17Z"/><path class="cls-2" d="M36.21,43.73s2.85,1.56,11.52-8.25h1.85a17.15,17.15,0,0,1-1.71,4.69,6.28,6.28,0,0,0,4-4.69,5.74,5.74,0,0,1-3,5.4C46.72,43.81,42.54,44.8,36.21,43.73Z"/><path class="cls-2" d="M35.41,34.48a11.3,11.3,0,0,1,0-9.24s5.07-8.11,14.74-8.82c0,0,12.37-1.85,21.33,4.55,0,0-8.53,5-11.52,9.1,0,0-5.4,1.28-9.38-1.7,0,0,6.68.14,6.68-1,0,0,2.42-1-1.14-3,0,0-9.81-.86-13.79,2A13.88,13.88,0,0,0,35.41,34.48Z"/><path class="cls-2" d="M69.06,26.09S80.85,19,93.66,28.37c0,0,5.55,6.81,4.27,15.78,0,0-.85,9.39-15.78,6,0,0,6.82,1.14,10.52-2.56,0,0-5.92,1.28-9.08-.43,0,0-.16-.85,1.69-2.42,0,0,5.79,2.09,8.38-4.91,0,0,3.47-10.59-10.07-13.43,0,0-5.71-.86-8.55,1.56a8.79,8.79,0,0,1,7.39-3.27C77.71,23.62,73.21,23.87,69.06,26.09Z"/><path class="cls-2" d="M26.94,53.72s6-2,7.48-4.87a15,15,0,0,0,12.89-1L49,55.73s-12,1.54-19,6Z"/><path class="cls-2" d="M50.86,44.15h9.72a19.4,19.4,0,0,0,10.9,3.71,17.26,17.26,0,0,0,6.41-.46,12,12,0,0,0,4.29,4.93L80,64.21h1.46l2.11-10.72s8.23,1.43,11.93-.52l.39-2.1s-3.86,2.93-11.57,1.39a10,10,0,0,1-5.79-5.1s5.4-2.25,5.55-5.64c0,0-2.93,4.1-7.63,4.8,0,0-9.57,1.31-15.66-4.4a9.86,9.86,0,0,1-3-8.26s-1.47,3,.42,7.86l-6.56.4Z"/><path class="cls-2" d="M59.6,38.14s2.16,4.87,9.1,6a40.8,40.8,0,0,0,9.52.21,7,7,0,0,0,5-4.55V35A3.37,3.37,0,0,0,80,35s-6.33,5-11,5.86A12.58,12.58,0,0,1,59.6,38.14Z"/><polygon class="cls-2" points="63.15 47.14 63.15 55.98 68.5 56.81 69.73 49.71 63.15 47.14"/><path class="cls-2" d="M72.82,49.61l-1.34,8.53s4.33,1.61,6.48,3.6l2.42-8.12-3.4-4Z"/><path class="cls-2" d="M84.44,54.8l-1.18,8s4.06,1,5.6,0c0,0,1.85-.1,3.19-2.77a4.8,4.8,0,0,0,0-2.42s-3.39,1.31-5.71-.77c0,0,5.25.07,6.79-2Z"/><path class="cls-3" d="M22.14,82.25v29.83H55.08a33.65,33.65,0,0,0,4.73-.33c12.7-1.76,23.72-10.38,28.37-21.16a27.74,27.74,0,0,0,2.37-11.08A34.21,34.21,0,0,0,63.49,46.06,34.2,34.2,0,0,0,25.66,64.39a33.94,33.94,0,0,0-3.52,15.12Z"/><path class="cls-2" d="M22.14,82.25v7.61a5.55,5.55,0,0,1-2.65-4.73V69.91a5.56,5.56,0,0,1,5.56-5.56,4.26,4.26,0,0,1,.61,0,33.94,33.94,0,0,0-3.52,15.12Z"/><path class="cls-4" d="M78,89.14H34.35a5.71,5.71,0,0,1-5.7-5.71V75a10.6,10.6,0,0,1,10.59-10.6c10.66-1.75,22.15-1.54,34.2,0a10,10,0,0,1,10,10v9.26A5.51,5.51,0,0,1,78,89.14Z"/><path class="cls-2" d="M92.72,69.91V85.13a5.55,5.55,0,0,1-4.54,5.46,27.74,27.74,0,0,0,2.37-11.08A34,34,0,0,0,87,64.36h.16A5.56,5.56,0,0,1,91.1,66,5.5,5.5,0,0,1,92.72,69.91Z"/><path class="cls-2" d="M60.29,29.17A3.78,3.78,0,0,1,58,32.64a3.68,3.68,0,0,1-1.49.31,3.78,3.78,0,1,1,3.77-3.78Z"/><path d="M63.49,46.06a34.46,34.46,0,0,0-14.3,0,7.41,7.41,0,0,1,5.58-5.3V32.52a3.81,3.81,0,0,0,1.75.43A3.68,3.68,0,0,0,58,32.64v8.14A7.42,7.42,0,0,1,63.49,46.06Z"/><path class="cls-4" d="M43.22,71.29a5.4,5.4,0,1,0,5.4,5.4A5.4,5.4,0,0,0,43.22,71.29Z"/><path d="M46.59,77.17A3.29,3.29,0,1,1,42.46,74a2.89,2.89,0,0,1,.84-.12,3.29,3.29,0,0,1,3.29,3.29Z"/><path class="cls-4" d="M46.45,76.22a2.35,2.35,0,0,1-1.66.67A2.39,2.39,0,0,1,42.4,74.5a2.07,2.07,0,0,1,.06-.5,2.89,2.89,0,0,1,.84-.12A3.28,3.28,0,0,1,46.45,76.22Z"/><path class="cls-5" d="M43.22,71.29a5.4,5.4,0,1,0,5.4,5.4A5.4,5.4,0,0,0,43.22,71.29Z"/><path class="cls-2" d="M43.22,69.77a6.93,6.93,0,1,0,6.93,6.92A6.92,6.92,0,0,0,43.22,69.77Zm0,12.32a5.4,5.4,0,1,1,5.4-5.4A5.4,5.4,0,0,1,43.22,82.09Z"/><path class="cls-4" d="M68.58,71.29a5.4,5.4,0,1,0,5.4,5.4A5.4,5.4,0,0,0,68.58,71.29Z"/><path d="M72,77.17A3.29,3.29,0,1,1,67.81,74a3,3,0,0,1,.85-.12A3.29,3.29,0,0,1,72,77.17Z"/><path class="cls-4" d="M71.81,76.22a2.39,2.39,0,0,1-4-1.72,2.07,2.07,0,0,1,0-.5,3,3,0,0,1,.85-.12A3.28,3.28,0,0,1,71.81,76.22Z"/><path class="cls-5" d="M68.58,71.29a5.4,5.4,0,1,0,5.4,5.4A5.4,5.4,0,0,0,68.58,71.29Z"/><path class="cls-2" d="M68.58,69.77a6.93,6.93,0,1,0,6.93,6.92A6.93,6.93,0,0,0,68.58,69.77Zm0,12.32a5.4,5.4,0,1,1,5.4-5.4A5.4,5.4,0,0,1,68.58,82.09Z"/><path class="cls-4" d="M47.21,96H65.37a0,0,0,0,1,0,0v4.22A1.79,1.79,0,0,1,63.58,102H49a1.79,1.79,0,0,1-1.79-1.79V96A0,0,0,0,1,47.21,96Z"/><rect class="cls-6" x="108.7" y="48" width="111.85" height="36.91" rx="7.72"/><text class="cls-7" transform="translate(113.12 76.7)">Recipe</text><text class="cls-8" transform="translate(224.76 76.7)">wiser</text></svg>