<svg id="Layer_1" data-name="Layer 1" xmlns="http://www.w3.org/2000/svg" viewBox="0 0 100 100"><defs><style>.cls-1,.cls-5{fill:#fff;}.cls-1{stroke:#866bac;}.cls-1,.cls-6{stroke-miterlimit:10;}.cls-2{fill:#bc0a80;}.cls-3{fill:#aa6cfb;}.cls-4{fill:lime;}.cls-6{fill:none;stroke:#000;}</style></defs><path class="cls-1" d="M24.78,53.23c15.93-7.68,25.22-7,25.22-7,19.1-1.42,26.41,7.4,26.41,7.4L78,52.52c9.67.28,13.37-4.84,13.37-4.84,2.13-2.42,1.86-7.25,1.86-7.25,8.11-8.82,3.14-19.91,3.14-19.91C89.67,5.16,71.72,7.43,71.72,7.43c-6.83-4.55-21-6.82-21-6.82C29.62,1.75,25.92,14,25.92,14,4.87,15.4,2.31,32.75,2.31,32.75c-2,19.63,15.65,23,15.65,23l1.77,1.28Z"/><path class="cls-2" d="M19.73,17.39s-3.34,4.27-2.34,7c0,0,2.56,1.85,4.55,0a7,7,0,0,1-3.13,8.25s2.84,1.13,5.4-2c0,0-.28,7.53-11.52,7.39A13.43,13.43,0,0,0,21.51,50.5l.86,3.44-1.28,1A26.09,26.09,0,0,1,8.85,47.68s5.55,3.13,8.82,3.42c0,0-13.08-6.55-12-15.51C5.11,26.75,10.73,21.18,19.73,17.39Z"/><path class="cls-2" d="M49,27.49c-7,8.81-18.49,5.4-18.49,5.4,1-1,1-4.05,1-4.05C25.35,39.72,14.93,39.29,14.93,39.29s4.16,1.14,4.8.57l3.49,13.23,1.71-1-3.7-12.94s4.41.28,8-4.55l.86-.57a20.37,20.37,0,0,0,8.81,1.28C44.74,34.41,46.64,30.8,49,27.49Z"/><path class="cls-2" d="M32.75,31s2.84,1.57,11.52-8.25h1.85a17.17,17.17,0,0,1-1.71,4.7,6.28,6.28,0,0,0,4-4.7,5.73,5.73,0,0,1-3,5.41C43.25,31.12,39.08,32.11,32.75,31Z"/><path class="cls-2" d="M32,21.8a11.32,11.32,0,0,1,0-9.25S37,4.45,46.68,3.74c0,0,12.38-1.85,21.34,4.55,0,0-8.54,5-11.52,9.1,0,0-5.41,1.28-9.39-1.71,0,0,6.69.14,6.69-1,0,0,2.41-1-1.14-3,0,0-9.82-.85-13.8,2A13.85,13.85,0,0,0,32,21.8Z"/><path class="cls-2" d="M65.6,13.41S77.38,6.3,90.19,15.68c0,0,5.55,6.82,4.28,15.78,0,0-.85,9.4-15.79,6,0,0,6.83,1.14,10.53-2.56,0,0-5.93,1.28-9.08-.42,0,0-.17-.86,1.68-2.42,0,0,5.8,2.08,8.38-4.91,0,0,3.47-10.59-10.06-13.44,0,0-5.71-.85-8.56,1.57A8.81,8.81,0,0,1,79,12C74.24,10.93,69.75,11.18,65.6,13.41Z"/><path class="cls-2" d="M23.48,41s6-2,7.48-4.88a15,15,0,0,0,12.88-1L45.54,43s-12,1.54-19,6Z"/><path class="cls-2" d="M47.39,31.46h9.72A19.46,19.46,0,0,0,68,35.17a17,17,0,0,0,6.41-.46,12,12,0,0,0,4.28,4.94L76.55,51.53H78L80.13,40.8s8.22,1.44,11.93-.51l.38-2.1s-3.85,2.92-11.57,1.38a10,10,0,0,1-5.78-5.09s5.4-2.26,5.55-5.64c0,0-2.93,4.1-7.64,4.79,0,0-9.56,1.31-15.66-4.4a9.89,9.89,0,0,1-3-8.25s-1.46,3,.43,7.86l-6.56.39Z"/><path class="cls-2" d="M56.14,25.45s2.16,4.87,9.1,6a40.32,40.32,0,0,0,9.51.22,7,7,0,0,0,5-4.55V22.26a3.36,3.36,0,0,0-3.24,0s-6.32,5-11,5.87A12.57,12.57,0,0,1,56.14,25.45Z"/><polygon class="cls-2" points="59.68 34.45 59.68 43.3 65.03 44.12 66.27 37.02 59.68 34.45"/><path class="cls-2" d="M69.35,36.92,68,45.46s4.33,1.61,6.47,3.6l2.42-8.13-3.39-4Z"/><path class="cls-2" d="M81,42.12l-1.18,8s4.06,1,5.61,0c0,0,1.85-.11,3.19-2.78a4.92,4.92,0,0,0,0-2.42s-3.4,1.31-5.71-.77c0,0,5.24.08,6.79-2Z"/><path class="cls-3" d="M18.67,69.56V99.39H51.62a35.45,35.45,0,0,0,4.73-.32c12.7-1.76,23.72-10.39,28.37-21.17a27.86,27.86,0,0,0,2.36-11.07A34.18,34.18,0,0,0,60,33.37a34.86,34.86,0,0,0-14.29,0A34.19,34.19,0,0,0,18.67,66.83Z"/><path class="cls-4" d="M18.67,69.56v7.61A5.54,5.54,0,0,1,16,72.44V57.22a5.54,5.54,0,0,1,5.55-5.55,6.08,6.08,0,0,1,.61,0,34.08,34.08,0,0,0-3.52,15.13Z"/><path class="cls-5" d="M74.5,76.45H30.89a5.71,5.71,0,0,1-5.71-5.7V62.26A10.59,10.59,0,0,1,35.77,51.67c10.67-1.75,22.15-1.55,34.21,0a10,10,0,0,1,10,10V71A5.5,5.5,0,0,1,74.5,76.45Z"/><path class="cls-4" d="M89.26,57.22V72.44a5.55,5.55,0,0,1-4.54,5.46,27.86,27.86,0,0,0,2.36-11.07,34.08,34.08,0,0,0-3.53-15.16h.16a5.55,5.55,0,0,1,5.55,5.55Z"/><path class="cls-4" d="M56.83,16.49a3.78,3.78,0,0,1-3.77,3.77,3.69,3.69,0,0,1-1.75-.43,3.77,3.77,0,1,1,5.52-3.34Z"/><path d="M60,33.37a34.86,34.86,0,0,0-14.29,0,7.4,7.4,0,0,1,5.58-5.29V19.83a3.69,3.69,0,0,0,1.75.43A3.75,3.75,0,0,0,54.55,20v8.14A7.41,7.41,0,0,1,60,33.37Z"/><path class="cls-5" d="M39.76,58.61a5.4,5.4,0,1,0,5.4,5.4A5.4,5.4,0,0,0,39.76,58.61Z"/><path d="M43.13,64.49A3.29,3.29,0,1,1,39,61.31a3,3,0,0,1,.85-.11A3.27,3.27,0,0,1,43,63.53,3.06,3.06,0,0,1,43.13,64.49Z"/><path class="cls-5" d="M43,63.53a2.34,2.34,0,0,1-1.66.68,2.39,2.39,0,0,1-2.39-2.39,2.16,2.16,0,0,1,.06-.51,3,3,0,0,1,.85-.11A3.27,3.27,0,0,1,43,63.53Z"/><path class="cls-6" d="M39.76,58.61a5.4,5.4,0,1,0,5.4,5.4A5.4,5.4,0,0,0,39.76,58.61Z"/><path class="cls-4" d="M39.76,57.08A6.93,6.93,0,1,0,46.69,64,6.93,6.93,0,0,0,39.76,57.08Zm0,12.33a5.4,5.4,0,1,1,5.4-5.4A5.4,5.4,0,0,1,39.76,69.41Z"/><path class="cls-5" d="M65.12,58.61a5.4,5.4,0,1,0,5.4,5.4A5.4,5.4,0,0,0,65.12,58.61Z"/><path d="M68.49,64.49a3.29,3.29,0,1,1-4.14-3.18,2.94,2.94,0,0,1,.84-.11,3.29,3.29,0,0,1,3.15,2.33A3.06,3.06,0,0,1,68.49,64.49Z"/><path class="cls-5" d="M68.34,63.53a2.34,2.34,0,0,1-1.66.68,2.39,2.39,0,0,1-2.39-2.39,2.16,2.16,0,0,1,.06-.51,2.94,2.94,0,0,1,.84-.11A3.29,3.29,0,0,1,68.34,63.53Z"/><path class="cls-6" d="M65.12,58.61a5.4,5.4,0,1,0,5.4,5.4A5.4,5.4,0,0,0,65.12,58.61Z"/><path class="cls-4" d="M65.12,57.08A6.93,6.93,0,1,0,72,64,6.93,6.93,0,0,0,65.12,57.08Zm0,12.33a5.4,5.4,0,1,1,5.4-5.4A5.4,5.4,0,0,1,65.12,69.41Z"/><path class="cls-5" d="M43.75,83.29H61.91a0,0,0,0,1,0,0v4.22a1.79,1.79,0,0,1-1.79,1.79H45.54a1.79,1.79,0,0,1-1.79-1.79V83.29A0,0,0,0,1,43.75,83.29Z"/></svg>